# xmcd CD database file
#
# Track frame offsets:
#	150
#	12301
#	29551
#	36901
#	78752
#	102752
#	108147
#	122848
#	139198
#	148348
#	162448
#	188698
#	207749
#
# Disc length: 2938 seconds
#
# Revision: 0
# Processed by: cddbd v1.5.2PL0 Copyright (c) Steve Scherf et al.
# Submitted via: CDex 1.51
#
DISCID=b60b780d
DTITLE=Don Brough - Atmospheres from Other Worlds
DYEAR=2004
DGENRE=New Age
TTITLE0=Angelic Calling
TTITLE1=Tropic of Capricorn
TTITLE2=Silver Awakening
TTITLE3=Assagement
TTITLE4=Atmospheres of Crete 1
TTITLE5=Atmospheres of Crete 2
TTITLE6=Atmospheres of Crete 3
TTITLE7=Castle Hill Atmosphere
TTITLE8=Castle Hill Gathering Place
TTITLE9=Mountain Song
TTITLE10=Mountain Peak
TTITLE11=Atmospheres of Crete 4
TTITLE12=Satety and Protection for B.B
EXTD=YEAR: 2004
EXTT0=
EXTT1=
EXTT2=
EXTT3=
EXTT4=
EXTT5=
EXTT6=
EXTT7=
EXTT8=
EXTT9=
EXTT10=
EXTT11=
EXTT12=
PLAYORDER=
